<?xml version="1.0" encoding="UTF-8"?>
<!DOCTYPE svg PUBLIC "-//W3C//DTD SVG 1.1//EN" "http://www.w3.org/Graphics/SVG/1.1/DTD/svg11.dtd">
<!-- Creator: CorelDRAW 2021 (64-Bit) -->
<svg xmlns="http://www.w3.org/2000/svg" xml:space="preserve" width="418px" height="387px" version="1.1" style="shape-rendering:geometricPrecision; text-rendering:geometricPrecision; image-rendering:optimizeQuality; fill-rule:evenodd; clip-rule:evenodd"
viewBox="0 0 93.44 86.51"
 xmlns:xlink="http://www.w3.org/1999/xlink"
 xmlns:xodm="http://www.corel.com/coreldraw/odm/2003">
 <defs>
  <style type="text/css">
   <![CDATA[
    .fil0 {fill:none}
    .fil1 {fill:#FD8602}
   ]]>
  </style>
 </defs>
 <g id="color_x0023_fd8603ff">
  <metadata id="CorelCorpID_0Corel-Layer"/>
  <rect class="fil0" width="93.44" height="86.51"/>
  <path class="fil1" d="M43.87 53.63c-0.25,4.82 -1.52,13.62 -2.18,18.74 -0.2,1.57 -0.39,3.12 -0.57,4.67 -0.18,1.58 -0.45,3.08 -0.62,4.63 -0.2,1.81 -0.01,3.19 1.41,3.73 2.38,0.91 4.28,-2.42 5.86,-4.4 0.8,-0.99 1.57,-1.93 2.37,-2.87 3.17,-3.68 6.35,-7.76 9.45,-11.52 0.42,-0.52 0.78,-0.97 1.19,-1.43 1.91,-2.17 4.09,-4.84 5.91,-7.11 2.32,-2.9 4.84,-5.73 7.17,-8.56 0.41,-0.5 0.79,-0.9 1.21,-1.41l3.58 -4.28c0.82,-0.98 1.58,-1.87 2.37,-2.87 1.71,-2.21 4.47,-4.3 3.64,-6.64 -0.54,-1.48 -2.03,-1.49 -3.71,-1.52 -3.47,-0.07 -7,-0.01 -10.48,-0.01 -3.5,0 -6.99,0.01 -10.49,0.01 -2.09,0 -8.94,0.1 -10.46,-0.03 0.58,-6.24 1.45,-12.44 2.22,-18.64 0.2,-1.56 0.41,-3.11 0.55,-4.69 0.13,-1.55 0.46,-3.05 0.63,-4.6 0.22,-1.95 0.19,-3.09 -1.37,-3.72 -1.97,-0.79 -3.56,1.57 -4.65,2.87 -0.42,0.5 -0.77,0.97 -1.17,1.44 -0.83,0.97 -1.6,1.87 -2.39,2.85l-10.63 12.96c-0.4,0.48 -0.82,0.93 -1.21,1.41l-11.17 13.6c-0.93,1.13 -2.18,2.33 -3.1,3.49 -0.78,0.98 -1.49,2.04 -2.31,2.94 -1.69,1.87 -3.13,3.81 -4.81,5.67 -0.71,0.8 -1.82,2.13 -1.39,3.78 0.39,1.49 2,1.54 3.7,1.53l31.45 -0.02zm-27.64 -4.74c9.72,0.12 19.91,0.01 29.7,0.01 3.33,0 3.36,1.56 2.94,4.54 -0.34,2.32 -0.6,4.6 -0.89,6.97 -0.55,4.55 -1.44,9.52 -1.55,14.13 0.79,-0.42 7.01,-8.04 7.75,-8.97 1.25,-1.57 2.57,-3.05 3.83,-4.59 1.23,-1.5 2.66,-2.96 3.86,-4.55 0.61,-0.8 1.22,-1.53 1.82,-2.31l2.87 -3.41c1.65,-2.02 2.97,-3.77 4.77,-5.78 0.65,-0.73 1.27,-1.59 1.88,-2.34 0.67,-0.83 1.28,-1.51 1.94,-2.27 0.29,-0.32 1.67,-2.08 1.63,-2.49 -6.08,-0.18 -12.85,-0.08 -19.02,-0.08l-11.07 0c-1.28,-0.1 -2.1,-0.82 -2.28,-2.11 -0.17,-1.26 0.69,-6.27 0.88,-7.95 0.52,-4.55 1.61,-11.67 1.8,-15.89 -0.49,0.19 -0.56,0.51 -1.11,1.02 -0.21,0.2 -0.34,0.28 -0.53,0.5 -2.02,2.3 -4.11,5.18 -6.2,7.62l-3.87 4.63c-0.64,0.78 -1.24,1.49 -1.92,2.28 -0.66,0.77 -1.22,1.56 -1.9,2.4 -1.3,1.59 -2.62,2.92 -3.92,4.57l-5.69 7.02c-1,1.21 -5.39,6.26 -5.72,7.05z"/>
 </g>
</svg>
